<?xml version="1.0" standalone="no"?>
<!DOCTYPE svg PUBLIC "-//W3C//DTD SVG 20010904//EN"
 "http://www.w3.org/TR/2001/REC-SVG-20010904/DTD/svg10.dtd">
<svg version="1.0" xmlns="http://www.w3.org/2000/svg"
 width="260.000000pt" height="260.000000pt" viewBox="0 0 260.000000 260.000000"
 preserveAspectRatio="xMidYMid meet">
<metadata>
Created by potrace 1.11, written by Peter Selinger 2001-2013
</metadata>
<g transform="translate(0.000000,260.000000) scale(0.100000,-0.100000)"
fill="#000000" stroke="none">
<path d="M1144 2279 c-10 -12 -24 -37 -29 -57 -13 -47 -36 -51 -85 -17 -25 17
-48 25 -67 23 -24 -3 -29 -9 -39 -47 -9 -37 -18 -50 -55 -74 -77 -49 -142 -77
-185 -77 -48 0 -61 -12 -66 -59 -2 -30 -8 -36 -35 -43 -25 -6 -32 -14 -35 -36
-2 -15 3 -37 11 -50 17 -28 8 -48 -56 -123 -48 -57 -52 -70 -23 -99 11 -11 20
-25 20 -30 0 -6 -16 -43 -36 -82 -30 -60 -34 -75 -25 -95 6 -13 11 -35 11 -49
0 -16 12 -37 29 -53 29 -27 29 -28 11 -47 -56 -57 -81 -155 -61 -231 24 -90
120 -172 201 -173 47 0 51 -4 91 -80 43 -82 130 -176 214 -230 36 -23 65 -45
65 -49 0 -4 -15 -15 -33 -24 -54 -30 -112 -138 -181 -339 -43 -127 -44 -138
-11 -138 17 0 25 6 25 18 1 43 16 46 66 14 47 -32 48 -32 181 -32 131 0 133 0
134 23 2 36 -1 50 -20 90 l-18 37 37 0 38 0 -15 -31 c-12 -23 -13 -41 -7 -72
9 -42 9 -42 59 -45 48 -3 49 -3 32 16 -40 44 -7 122 51 122 63 0 97 -75 55
-122 -15 -17 -13 -18 31 -18 41 0 48 3 56 26 15 37 12 83 -5 100 -24 24 -19
42 10 36 24 -4 25 -7 25 -83 l0 -79 101 0 c85 0 107 3 135 20 l32 21 7 -21 c8
-26 59 -29 51 -2 -3 9 -10 44 -15 76 -6 33 -23 93 -37 135 -50 143 -96 216
-159 245 -19 9 -35 20 -35 24 0 4 27 22 60 40 82 45 188 154 234 241 38 73 39
74 120 85 46 6 99 45 141 105 24 34 30 54 33 111 4 61 1 75 -26 124 l-30 55
25 36 c23 34 24 38 9 78 -8 23 -17 78 -21 121 -3 44 -10 87 -15 96 -6 11 -5
28 2 46 9 26 6 38 -26 102 -34 68 -36 76 -24 108 17 46 3 67 -52 76 -23 4 -62
22 -86 40 -38 29 -43 38 -44 71 0 65 -14 79 -73 76 -87 -4 -97 -1 -108 28 -22
59 -64 79 -109 51 -27 -17 -98 18 -130 66 -36 52 -58 56 -92 15 -15 -18 -28
-39 -28 -46 0 -7 -7 -13 -16 -13 -25 0 -93 41 -109 67 -19 29 -56 30 -81 2z
m77 -576 c100 -15 112 -15 183 0 145 32 205 21 289 -53 60 -53 77 -86 77 -151
0 -40 5 -58 25 -81 32 -37 27 -45 -15 -23 -35 18 -52 15 -162 -31 -32 -13 -75
-24 -96 -24 -22 0 -59 -11 -86 -25 -40 -21 -60 -25 -136 -25 -79 0 -93 3 -126
25 -27 18 -50 25 -86 25 -27 0 -65 7 -86 16 -20 9 -61 24 -91 35 -53 18 -54
18 -97 -1 -52 -22 -56 -15 -14 25 28 26 30 34 30 97 0 66 1 70 40 112 53 58
130 96 195 96 28 0 98 -7 156 -17z m-141 -422 c68 -5 76 -8 87 -32 22 -47 -21
-211 -69 -265 -36 -40 -100 -57 -201 -52 -146 7 -182 36 -199 161 -8 55 -7 85
3 127 12 48 17 56 44 61 38 8 237 8 335 0z m774 -1 c34 -12 51 -73 51 -176 -1
-73 -4 -85 -27 -116 -33 -43 -83 -58 -192 -58 -79 0 -147 21 -178 56 -46 52
-92 253 -65 281 19 18 367 30 411 13z m-1224 -25 c0 -8 -4 -15 -10 -15 -5 0
-10 7 -10 15 0 8 5 15 10 15 6 0 10 -7 10 -15z m1370 0 c0 -8 -7 -15 -15 -15
-8 0 -15 7 -15 15 0 8 7 15 15 15 8 0 15 -7 15 -15z m-1446 -101 c21 -82 42
-130 60 -137 14 -6 52 -104 43 -113 -12 -12 -90 19 -124 49 -69 60 -84 155
-37 235 14 24 30 40 34 35 5 -4 15 -35 24 -69z m803 61 c12 -9 31 -44 44 -82
69 -208 115 -241 325 -230 80 4 112 10 139 26 45 26 46 13 2 -77 -74 -151
-167 -246 -302 -306 -22 -10 -53 -24 -68 -32 -15 -7 -66 -22 -113 -34 l-84
-21 -78 20 c-257 68 -401 183 -497 399 -15 34 -26 65 -23 68 3 2 22 -5 42 -17
30 -17 58 -22 144 -26 66 -3 123 -1 150 6 64 18 113 67 140 143 49 136 58 153
82 165 34 17 71 16 97 -2z m742 -11 c28 -35 43 -96 35 -139 -9 -47 -57 -121
-91 -138 -45 -23 -93 -31 -93 -15 0 36 25 94 51 120 30 30 44 70 54 151 4 26
10 47 15 47 5 0 18 -12 29 -26z m-936 -830 c27 -31 35 -54 19 -54 -15 0 -92
112 -85 123 4 6 13 1 22 -13 9 -14 28 -39 44 -56z m287 63 c0 -7 -17 -29 -37
-49 -36 -35 -62 -43 -120 -40 -22 2 -93 56 -93 71 0 4 35 6 78 3 52 -2 90 1
117 11 52 19 55 19 55 4z m49 -64 c-16 -47 -46 -80 -59 -67 -9 9 -3 22 25 53
21 23 39 41 41 41 1 0 -1 -12 -7 -27z m-469 -5 c1 -13 7 -40 14 -61 8 -20 10
-40 5 -43 -5 -3 -9 -33 -9 -67 0 -51 -3 -64 -20 -75 -13 -8 -20 -23 -20 -42 0
-26 -4 -30 -28 -30 -33 0 -102 45 -102 66 0 18 68 168 106 232 27 46 54 56 54
20z m570 -17 c0 -15 -49 -68 -50 -53 0 6 4 12 8 12 5 0 15 11 22 25 14 26 20
31 20 16z m130 -150 l30 -95 -27 -23 c-34 -28 -92 -48 -103 -37 -5 5 -10 25
-12 44 -3 31 -6 35 -30 35 -16 -1 -28 1 -28 3 0 2 14 34 30 72 17 38 30 70 30
73 0 2 7 22 16 43 l16 39 24 -30 c13 -17 38 -73 54 -124z m-225 10 c3 -6 -49
-9 -135 -8 -77 1 -140 5 -140 10 0 11 268 9 275 -2z m-300 -21 c3 -5 -3 -10
-14 -10 -12 0 -21 5 -21 10 0 6 6 10 14 10 8 0 18 -4 21 -10z"/>
<path d="M889 1171 c-64 -20 -99 -61 -99 -116 0 -20 5 -25 25 -25 18 0 25 5
25 19 0 38 33 64 83 64 53 0 77 -15 77 -50 0 -15 8 -27 23 -32 29 -11 37 -6
37 26 0 41 -36 89 -80 107 -44 17 -52 18 -91 7z"/>
<path d="M1665 1165 c-22 -8 -41 -15 -42 -15 -1 0 -11 -15 -22 -34 -25 -40
-27 -81 -5 -90 22 -8 34 1 34 28 0 33 32 57 77 58 53 0 82 -17 90 -53 7 -37
21 -46 41 -25 15 14 15 20 1 58 -25 68 -100 100 -174 73z"/>
<path d="M1150 737 c0 -47 30 -123 60 -152 40 -39 119 -46 168 -15 40 25 71
89 72 148 l0 42 -150 0 -150 0 0 -23z m268 -31 c5 -25 -37 -95 -68 -111 -72
-37 -132 -2 -160 96 -5 15 -5 30 -2 34 4 3 56 4 117 1 86 -4 111 -8 113 -20z"/>
</g>
</svg>
